# xmcd
#
# Track frame offsets:
#	150
#	51900
#	65560
#	77775
#	104470
#	113085
#	131770
#	155395
#
# Disc length: 2399 seconds
#
# Revision: 2
# Processed by: cddbd v1.5.1PL2 Copyright (c) Steve Scherf et al.
# Submitted via: EasyCDDAExtractor 8.0.2.1
#
DISCID=6a095d08
DTITLE=Dio - Johanneshovs Isstadion Stockholm 19-04-86 Disc 2
DYEAR=1986
DGENRE=Hard Rock
TTITLE0=Sacred Heart
TTITLE1=Rock and Roll Children
TTITLE2=Long Live Rock and Roll
TTITLE3=Man On The Silver Mountain
TTITLE4=Rock and Roll Children Reprise
TTITLE5=Stand Up And Shout
TTITLE6=Rainbow In The Dark
TTITLE7=We Rock
EXTD=
EXTT0=
EXTT1=
EXTT2=
EXTT3=
EXTT4=
EXTT5=
EXTT6=
EXTT7=
PLAYORDER=
